# xmcd
#
# Track frame offsets:
#	150
#	23337
#	46345
#	61240
#	77747
#	93987
#	110642
#	128842
#	144422
#	173912
#	190620
#
# Disc length: 2919 seconds
# Revision: 1
# Processed by: cddbd v1.5.2PL0 Copyright (c) Steve Scherf et al.
# Submitted via: dBpowerAMP V12.0
#
DISCID=850b650b
DTITLE=R.L. Burnside - Wish I Was in Heaven Sitting Down
DYEAR=2000
DGENRE=Blues
TTITLE0=Hard Time Killing Floor
TTITLE1=Got Messed Up
TTITLE2=Miss Maybelle
TTITLE3=Wish I Was in Heaven Sitting Down
TTITLE4=Too Many Ups
TTITLE5=Nothin' Man
TTITLE6=See What My Buddy Done
TTITLE7=My Eyes Keep Me in Trouble
TTITLE8=Bad Luck City
TTITLE9=Chain of Fools
TTITLE10=R.L.'s Story
EXTD=
EXTT0=
EXTT1=
EXTT2=
EXTT3=
EXTT4=
EXTT5=
EXTT6=
EXTT7=
EXTT8=
EXTT9=
EXTT10=
PLAYORDER=
